# xmcd CD database file
#
# Track frame offsets:
#	150
#	14352
#	30475
#	44395
#	58417
#	71850
#	86202
#	102882
#	117342
#	131452
#	146365
#	160447
#	174602
#	188975
#	202030
#	216315
#	229430
#	245327
#	259162
#	274025
#	289840
#	304722
#	307090
#	309507
#	311952
#	314302
#	316607
#	319012
#	321510
#	323887
#	326337
#	328737
#	331105
#	333377
#	335850
#	338302
#	340772
#	343057
#	345452
#	347845
#	350305
#	352810
#
# Disc length: 4735 seconds
#
# Revision: 0
# Processed by: cddbd v1.5.2PL0 Copyright (c) Steve Scherf et al.
# Submitted via: CDex 1.70beta2
#
DISCID=98127d2a
DTITLE=Rick Fenn - Saxophone - Nature - Jazz
DYEAR=1900
DGENRE=Jazz
TTITLE0=Changing Places
TTITLE1=Dreamy Sax
TTITLE2=Perfect Romance
TTITLE3=City Zone
TTITLE4=Doctor Jazz
TTITLE5=Narture Story
TTITLE6=Cool Trek
TTITLE7=Bustling
TTITLE8=Altitude
TTITLE9=Jungle Search
TTITLE10=Swinger
TTITLE11=Snazzy
TTITLE12=Water Meadows
TTITLE13=Wistful
TTITLE14=Lotus Flower
TTITLE15=Funky Cat
TTITLE16=Jazz Swing
TTITLE17=Sidewalk
TTITLE18=On The Case
TTITLE19=City Boundary
TTITLE20=Urban Buzz
TTITLE21=_Changing Places
TTITLE22=_Dreamy Sax
TTITLE23=_Perfect Romance
TTITLE24=_City Zone
TTITLE25=_Doctor Jazz
TTITLE26=_Narture Story
TTITLE27=_Cool Trek
TTITLE28=_Bustling
TTITLE29=_Altitude
TTITLE30=_Jungle Search
TTITLE31=_Swinger
TTITLE32=_Snazzy
TTITLE33=_Water Meadows
TTITLE34=_Wistful
TTITLE35=_Lotus Flower
TTITLE36=_Funky Cat
TTITLE37=_Jazz Swing
TTITLE38=_Sidewalk
TTITLE39=_On The Case
TTITLE40=_City Boundary
TTITLE41=_Urban Buzz
EXTD=
EXTT0=
EXTT1=
EXTT2=
EXTT3=
EXTT4=
EXTT5=
EXTT6=
EXTT7=
EXTT8=
EXTT9=
EXTT10=
EXTT11=
EXTT12=
EXTT13=
EXTT14=
EXTT15=
EXTT16=
EXTT17=
EXTT18=
EXTT19=
EXTT20=
EXTT21=
EXTT22=
EXTT23=
EXTT24=
EXTT25=
EXTT26=
EXTT27=
EXTT28=
EXTT29=
EXTT30=
EXTT31=
EXTT32=
EXTT33=
EXTT34=
EXTT35=
EXTT36=
EXTT37=
EXTT38=
EXTT39=
EXTT40=
EXTT41=
PLAYORDER=
